# File created by Blade
# Date/Time:  Tue Apr 07 20:22:24 2015
#---------------------------------------------------------
:version 1.10
:name HOM
:units
  mass 1.0
  length 1.000000
  angle deg
:documentation
     Acclaim Skeleton File
:root
   axis xyz
   order TX TY TZ RX RY RZ
   position 0.000000 0.000000 0.000000
   orientation 0 0 0
:bonedata
   begin
      id 1
      name Spine_dum
      direction 0.000000 1.000000 0.000000
      length 4.885285
      axis 0.0 0.0 0.0 xyz
   end
   begin
      id 2
      name LeftUpLeg_dum
      direction 1.000000 0.000000 0.000000
      length 2.672193
      axis 0.0 0.0 0.0 xyz
   end
   begin
      id 3
      name RightUpLeg_dum
      direction -1.000000 0.000000 0.000000
      length 2.672193
      axis 0.0 0.0 0.0 xyz
   end
   begin
      id 4
      name Spine
      direction 0.000000 1.000000 0.000000
      length 0.000000
      axis 0.0 0.0 0.0 xyz
      dof rx ry rz
   end
   begin
      id 5
      name Spine_dum1
      direction 0.000000 1.000000 0.000000
      length 16.494159
      axis 0.0 0.0 0.0 xyz
   end
   begin
      id 6
      name Spine_dum2
      direction 0.000000 1.000000 0.000000
      length 10.663448
      axis 0.0 0.0 0.0 xyz
   end
   begin
      id 7
      name Spine_dum3
      direction 0.000000 1.000000 0.000000
      length 10.663448
      axis 0.0 0.0 0.0 xyz
   end
   begin
      id 8
      name Head
      direction 0.000000 1.000000 0.000000
      length 4.527550
      axis 0.0 0.0 0.0 xyz
      dof rx ry rz
   end
   begin
      id 9
      name LeftShoulder
      direction 1.000000 0.000000 0.000000
      length 7.531907
      axis 0.0 0.0 -90.0 xyz
      dof rx ry rz
   end
   begin
      id 10
      name LeftArm
      direction 1.000000 0.000000 0.000000
      length 10.229199
      axis 0.0 0.0 -90.0 xyz
      dof rx ry rz
   end
   begin
      id 11
      name LeftForeArm
      direction 1.000000 0.000000 0.000000
      length 8.673495
      axis 0.0 0.0 -90.0 xyz
      dof ry rz rx
   end
   begin
      id 12
      name LeftHand
      direction 0.000000 0.000000 0.000000
      length 0.000000
      axis 0.0 0.0 -90.0 xyz
      dof rx ry rz
   end
   begin
      id 13
      name LeftHand_dum1
      direction 0.000000 0.000000 0.000000
      length 0.000000
      axis 0.0 0.0 -90.0 xyz
   end
   begin
      id 14
      name LeftHand_dum2
      direction 1.000000 0.000000 0.000000
      length 3.937000
      axis 0.0 0.0 -90.0 xyz
   end
   begin
      id 15
      name LeftHandThumb1
      direction 0.000000 0.000000 1.000000
      length 3.937000
      axis 0.0 0.0 -90.0 xyz
      dof rx rz ry
   end
   begin
      id 16
      name RightShoulder
      direction -1.000000 0.000000 0.000000
      length 7.531907
      axis 0.0 0.0 90.0 xyz
      dof rx ry rz
   end
   begin
      id 17
      name RightArm
      direction -1.000000 0.000000 0.000000
      length 10.229199
      axis 0.0 0.0 90.0 xyz
      dof rx ry rz
   end
   begin
      id 18
      name RightForeArm
      direction -1.000000 0.000000 0.000000
      length 8.673495
      axis 0.0 0.0 90.0 xyz
      dof ry rz rx
   end
   begin
      id 19
      name RightHand
      direction 0.000000 0.000000 0.000000
      length 0.000000
      axis 0.0 0.0 90.0 xyz
      dof rx ry rz
   end
   begin
      id 20
      name RightHand_dum1
      direction 0.000000 0.000000 0.000000
      length 0.000000
      axis 0.0 0.0 90.0 xyz
   end
   begin
      id 21
      name RightHand_dum2
      direction -1.000000 0.000000 0.000000
      length 3.937000
      axis 0.0 0.0 90.0 xyz
   end
   begin
      id 22
      name RightHandThumb1
      direction 0.000000 0.000000 1.000000
      length 3.937000
      axis 0.0 0.0 90.0 xyz
      dof rx rz ry
   end
   begin
      id 23
      name LeftUpLeg
      direction 0.000000 -1.000000 0.000000
      length 16.263388
      axis 0.0 0.0 0.0 xyz
      dof rx ry rz
   end
   begin
      id 24
      name LeftLeg
      direction 0.000000 -1.000000 0.000000
      length 14.328163
      axis 0.0 0.0 0.0 xyz
      dof rx ry rz
   end
   begin
      id 25
      name LeftFoot
      direction 0.000000 -0.258819 0.965926
      length 5.031290
      axis 15.0 0.0 0.0 xyz
      dof rx ry rz
   end
   begin
      id 26
      name LeftToeBase
      direction 0.000000 0.000000 1.000000
      length 2.952750
      axis 0.0 0.0 0.0 xyz
      dof rx ry rz
   end
   begin
      id 27
      name RightUpLeg
      direction 0.000000 -1.000000 0.000000
      length 16.263388
      axis 0.0 0.0 0.0 xyz
      dof rx ry rz
   end
   begin
      id 28
      name RightLeg
      direction 0.000000 -1.000000 0.000000
      length 14.328163
      axis 0.0 0.0 0.0 xyz
      dof rx ry rz
   end
   begin
      id 29
      name RightFoot
      direction 0.000000 -0.258819 0.965926
      length 5.031290
      axis 15.0 0.0 0.0 xyz
      dof rx ry rz
   end
   begin
      id 30
      name RightToeBase
      direction 0.000000 0.000000 1.000000
      length 2.952750
      axis 0.0 0.0 0.0 xyz
      dof rx ry rz
   end
:hierarchy
   begin
      root Spine_dum LeftUpLeg_dum RightUpLeg_dum
      Spine_dum Spine
      LeftUpLeg_dum LeftUpLeg
      RightUpLeg_dum RightUpLeg
      Spine Spine_dum1 Spine_dum2 Spine_dum3
      Spine_dum1 Head
      Spine_dum2 LeftShoulder
      Spine_dum3 RightShoulder
      LeftShoulder LeftArm
      LeftArm LeftForeArm
      LeftForeArm LeftHand
      LeftHand LeftHand_dum1 LeftHand_dum2
      LeftHand_dum1 LeftHandThumb1
      RightShoulder RightArm
      RightArm RightForeArm
      RightForeArm RightHand
      RightHand RightHand_dum1 RightHand_dum2
      RightHand_dum1 RightHandThumb1
      LeftUpLeg LeftLeg
      LeftLeg LeftFoot
      LeftFoot LeftToeBase
      RightUpLeg RightLeg
      RightLeg RightFoot
      RightFoot RightToeBase
   end

# File created by Blade
# Date/Time:  Tue Apr 07 20:22:14 2015
# Frame Rate: 120.000 fps
#------------------------------------------------------
:FULLY-SPECIFIED
:DEGREES
466
root 5.358620 34.346030 -10.773048 36.906497 -35.340839 -54.186338
Spine 5.205731 20.806082 30.684547
Head -3.005493 10.331541 11.029526
LeftShoulder -23.421795 41.650225 18.209661
LeftArm 53.432303 -54.522968 -76.252045
LeftForeArm -3.148573 -0.000000 2.841909
LeftHand 11.839411 0.000000 4.933423
LeftHandThumb1 -26.253704 0.000000 33.147579
RightShoulder 8.409766 10.780504 -13.781074
RightArm 26.602353 -3.601455 70.739576
RightForeArm 2.638742 -0.000000 4.113255
RightHand 0.406387 -0.000000 7.524346
RightHandThumb1 -24.326973 -0.000000 -32.862282
LeftUpLeg -7.860325 11.044978 36.330912
LeftLeg 18.291698 -0.000000 -0.000000
LeftFoot -17.305045 24.276733 -19.901925
LeftToeBase -5.774290 -0.000000 0.000000
RightUpLeg -68.201802 -47.074611 -21.502639
RightLeg 4.662643 -0.000000 -0.000000
RightFoot 42.660881 -13.995632 -11.376574
RightToeBase 25.068324 -0.000000 -0.000000
467
root 5.373903 34.344225 -10.777972 36.965580 -35.293632 -54.240084
Spine 5.219952 20.888643 30.786324
Head -3.077297 10.260619 10.970122
LeftShoulder -23.402824 41.629383 18.246846
LeftArm 53.177069 -54.514097 -75.948213
LeftForeArm -3.118512 -0.000000 2.848152
LeftHand 11.861024 -0.000000 4.986825
LeftHandThumb1 -26.253704 0.000000 33.147579
RightShoulder 8.386924 10.725457 -13.776370
RightArm 26.461309 -3.568762 70.503367
RightForeArm 2.539398 0.000000 4.047542
RightHand 0.991021 -0.000000 6.837897
RightHandThumb1 -24.326973 -0.000000 -32.862282
LeftUpLeg -7.968309 11.137190 36.370882
LeftLeg 18.373735 -0.000000 -0.000000
LeftFoot -17.291072 24.269376 -19.877825
LeftToeBase -5.783773 -0.000000 0.000000
RightUpLeg -67.915137 -46.849632 -21.745888
RightLeg 4.862682 -0.000000 -0.000000
RightFoot 42.841347 -13.989138 -11.266578
RightToeBase 25.076700 -0.000000 -0.000000
468
root 5.391408 34.339123 -10.781551 36.955953 -35.263247 -54.205763
Spine 5.249026 20.923009 30.815944
Head -3.170649 10.223581 10.907717
LeftShoulder -23.426165 41.621580 18.253448
LeftArm 52.997482 -54.535343 -75.728032
LeftForeArm -3.125845 -0.000000 2.862889
LeftHand 11.911753 -0.000000 4.989451
LeftHandThumb1 -26.253704 0.000000 33.147579
RightShoulder 8.360109 10.684737 -13.769377
RightArm 26.334350 -3.748475 70.186910
RightForeArm 2.775291 -0.000000 4.003742
RightHand 1.126266 -0.000000 6.684385
RightHandThumb1 -24.326973 -0.000000 -32.862282
LeftUpLeg -8.066869 11.208673 36.330462
LeftLeg 18.417175 -0.000000 -0.000000
LeftFoot -17.269099 24.279850 -19.812364
LeftToeBase -5.734636 -0.000000 0.000000
RightUpLeg -67.599023 -46.661534 -22.074489
RightLeg 4.993231 -0.000000 -0.000000
RightFoot 43.020937 -14.057328 -11.087872
RightToeBase 25.013901 -0.000000 -0.000000
469
root 5.407767 34.335865 -10.782356 36.880437 -35.130248 -54.127746
Spine 5.266038 20.849907 30.891651
Head -3.258961 10.179659 10.836261
LeftShoulder -23.462333 41.642886 18.233302
LeftArm 52.900578 -54.585703 -75.630816
LeftForeArm -3.084972 0.000000 2.921433
LeftHand 11.905397 -0.000000 4.990788
LeftHandThumb1 -26.253704 0.000000 33.147579
RightShoulder 8.340527 10.627827 -13.770207
RightArm 26.257285 -3.595378 70.019462
RightForeArm 2.745787 -0.000000 3.863888
RightHand 1.082822 -0.000000 6.860542
RightHandThumb1 -24.326973 -0.000000 -32.862282
LeftUpLeg -8.183797 11.188192 36.310773
LeftLeg 18.431362 -0.000000 -0.000000
LeftFoot -17.210362 24.301174 -19.675428
LeftToeBase -5.756801 -0.000000 0.000000
RightUpLeg -67.234714 -46.603269 -22.342371
RightLeg 5.048100 -0.000000 -0.000000
RightFoot 43.141475 -14.093693 -10.905923
RightToeBase 25.026416 -0.000000 -0.000000
470
root 5.415439 34.336366 -10.782307 36.780040 -34.987823 -54.088170
Spine 5.310778 20.768280 30.994932
Head -3.311350 10.142925 10.809899
LeftShoulder -23.470834 41.680045 18.241880
LeftArm 52.792261 -54.659357 -75.546353
LeftForeArm -3.150654 -0.000000 3.011932
LeftHand 11.888331 -0.000000 4.999464
LeftHandThumb1 -26.253704 0.000000 33.147579
RightShoulder 8.318470 10.584460 -13.759776
RightArm 26.164332 -3.480787 69.872303
RightForeArm 2.871582 -0.000000 3.686396
RightHand 1.035833 -0.000000 7.078543
RightHandThumb1 -24.326973 -0.000000 -32.862282
LeftUpLeg -8.218454 11.167419 36.347838
LeftLeg 18.409912 -0.000000 -0.000000
LeftFoot -17.129156 24.286942 -19.533137
LeftToeBase -5.748162 -0.000000 0.000000
RightUpLeg -66.925948 -46.563411 -22.494101
RightLeg 5.098808 -0.000000 -0.000000
RightFoot 43.190688 -14.108017 -10.795607
RightToeBase 24.982131 -0.000000 -0.000000
471
root 5.421952 34.339177 -10.782639 36.684971 -34.830948 -54.077434
Spine 5.373196 20.694445 31.133867
Head -3.369434 10.099681 10.795446
LeftShoulder -23.495863 41.716787 18.227165
LeftArm 52.675625 -54.708246 -75.425333
LeftForeArm -3.227819 -0.000000 3.074099
LeftHand 11.870093 -0.000000 5.059998
LeftHandThumb1 -26.253704 0.000000 33.147579
RightShoulder 8.307401 10.555952 -13.748282
RightArm 25.991901 -3.296224 69.741836
RightForeArm 2.916514 0.000000 3.654952
RightHand 0.918074 -0.000000 7.277401
RightHandThumb1 -24.326973 -0.000000 -32.862282
LeftUpLeg -8.233169 11.112889 36.417553
LeftLeg 18.376808 -0.000000 -0.000000
LeftFoot -17.063855 24.274971 -19.441542
LeftToeBase -5.841268 -0.000000 0.000000
RightUpLeg -66.670014 -46.536197 -22.550401
RightLeg 5.116739 -0.000000 -0.000000
RightFoot 43.210848 -14.131972 -10.803029
RightToeBase 25.005646 -0.000000 -0.000000
472
root 5.426112 34.342560 -10.783763 36.592009 -34.676167 -54.043133
Spine 5.399273 20.608526 31.223947
Head -3.394941 10.081874 10.835390
LeftShoulder -23.507370 41.744071 18.253740
LeftArm 52.624539 -54.824987 -75.443390
LeftForeArm -3.294893 0.000000 3.162648
LeftHand 11.877354 0.000000 5.102923
LeftHandThumb1 -26.253704 0.000000 33.147579
RightShoulder 8.320792 10.539225 -13.699645
RightArm 25.830047 -3.189560 69.582511
RightForeArm 3.037920 -0.000000 3.570582
RightHand 0.973472 -0.000000 7.307856
RightHandThumb1 -24.326973 -0.000000 -32.862282
LeftUpLeg -8.269308 11.038657 36.477013
LeftLeg 18.361463 -0.000000 -0.000000
LeftFoot -17.026381 24.232913 -19.414332
LeftToeBase -5.803752 -0.000000 0.000000
RightUpLeg -66.430330 -46.542077 -22.633236
RightLeg 5.126500 -0.000000 -0.000000
RightFoot 43.147787 -14.053985 -10.847575
RightToeBase 25.038836 -0.000000 -0.000000
473
root 5.427623 34.347939 -10.788961 36.571466 -34.604577 -54.074662
Spine 5.433844 20.637102 31.294693
Head -3.393982 10.044710 10.910108
LeftShoulder -23.541491 41.828638 18.250905
LeftArm 52.626814 -54.933321 -75.453734
LeftForeArm -3.313323 -0.000000 3.237105
LeftHand 11.916505 -0.000000 5.083122
LeftHandThumb1 -26.253704 0.000000 33.147579
RightShoulder 8.313644 10.470753 -13.677435
RightArm 25.717173 -3.029354 69.512351
RightForeArm 3.286872 -0.000000 3.497399
RightHand 0.376841 0.000000 8.181097
RightHandThumb1 -24.326973 -0.000000 -32.862282
LeftUpLeg -8.276658 11.077305 36.550481
LeftLeg 18.352396 -0.000000 -0.000000
LeftFoot -16.981109 24.175657 -19.419794
LeftToeBase -5.759679 -0.000000 0.000000
RightUpLeg -66.298475 -46.453491 -22.667746
RightLeg 5.118313 -0.000000 -0.000000
RightFoot 43.106580 -14.125778 -10.848971
RightToeBase 25.053125 -0.000000 -0.000000
474
root 5.429089 34.351404 -10.792107 36.500362 -34.496049 -54.019833
Spine 5.425411 20.642521 31.309252
Head -3.400128 9.990992 11.007475
LeftShoulder -23.533683 41.874390 18.322476
LeftArm 52.744431 -55.063774 -75.637897
LeftForeArm -3.234701 -0.000000 3.301082
LeftHand 11.887145 -0.000000 5.293651
LeftHandThumb1 -26.253704 0.000000 33.147579
RightShoulder 8.289705 10.406966 -13.646039
RightArm 25.566781 -2.889002 69.416855
RightForeArm 3.418122 -0.000000 3.464628
RightHand 0.030968 -0.000000 8.641296
RightHandThumb1 -24.326973 -0.000000 -32.862282
LeftUpLeg -8.341815 11.044825 36.576004
LeftLeg 18.361990 -0.000000 -0.000000
LeftFoot -16.946907 24.139123 -19.459984
LeftToeBase -5.751467 -0.000000 0.000000
RightUpLeg -66.134225 -46.447676 -22.787495
RightLeg 5.128367 -0.000000 -0.000000
RightFoot 43.053574 -14.113797 -10.889119
RightToeBase 25.056875 -0.000000 -0.000000
475
root 5.430260 34.355352 -10.794995 36.429321 -34.386897 -53.965570
Spine 5.416249 20.642927 31.332887
Head -3.392697 9.961128 11.080500
LeftShoulder -23.532216 41.881621 18.373827
LeftArm 52.717317 -55.146961 -75.639980
LeftForeArm -3.209269 -0.000000 3.370338
LeftHand 11.853249 -0.000000 5.437647
LeftHandThumb1 -26.253704 0.000000 33.147579
RightShoulder 8.325835 10.279487 -13.570942
RightArm 25.441043 -2.594287 69.292522
RightForeArm 3.030509 -0.000000 3.433064
RightHand 0.671004 -0.000000 7.722964
RightHandThumb1 -24.326973 -0.000000 -32.862282
LeftUpLeg -8.410778 11.058747 36.597984
LeftLeg 18.376117 -0.000000 -0.000000
LeftFoot -16.916206 24.086595 -19.496007
LeftToeBase -5.745919 -0.000000 0.000000
RightUpLeg -65.965146 -46.455039 -22.926838
RightLeg 5.127108 -0.000000 -0.000000
RightFoot 43.045527 -14.013161 -10.953037
RightToeBase 25.058871 -0.000000 -0.000000
476
root 5.430940 34.358610 -10.798053 36.369174 -34.293637 -53.893900
Spine 5.381185 20.661728 31.320928
Head -3.378581 9.934788 11.147108
LeftShoulder -23.530855 41.921961 18.420464
LeftArm 52.721437 -55.234585 -75.677844
LeftForeArm -3.199062 0.000000 3.443581
LeftHand 11.847848 0.000000 5.564758
LeftHandThumb1 -26.253704 0.000000 33.147579
RightShoulder 8.352347 10.183391 -13.513600
RightArm 25.281411 -2.341308 69.218274
RightForeArm 2.785385 -0.000000 3.390322
RightHand 0.809683 -0.000000 7.571633
RightHandThumb1 -24.326973 -0.000000 -32.862282
LeftUpLeg -8.482265 11.111577 36.596886
LeftLeg 18.377555 -0.000000 -0.000000
LeftFoot -16.872841 24.014827 -19.496443
LeftToeBase -5.752165 -0.000000 0.000000
RightUpLeg -65.846165 -46.470031 -23.080336
RightLeg 5.148059 -0.000000 -0.000000
RightFoot 43.046257 -14.071827 -10.920552
RightToeBase 25.187452 -0.000000 -0.000000
477
root 5.431486 34.362703 -10.802852 36.341563 -34.209849 -53.842607
Spine 5.338104 20.730789 31.309335
Head -3.384510 9.888587 11.213008
LeftShoulder -23.489907 41.850408 18.527942
LeftArm 52.581789 -55.284569 -75.564371
LeftForeArm -3.148958 -0.000000 3.447626
LeftHand 11.951099 0.000000 5.660905
LeftHandThumb1 -26.253704 0.000000 33.147579
RightShoulder 8.352478 10.067417 -13.465295
RightArm 25.178881 -2.253874 69.077172
RightForeArm 2.910056 -0.000000 3.287747
RightHand 0.883255 0.000000 7.579426
RightHandThumb1 -24.326973 -0.000000 -32.862282
LeftUpLeg -8.545489 11.202162 36.604454
LeftLeg 18.345893 -0.000000 -0.000000
LeftFoot -16.824825 23.921794 -19.519045
LeftToeBase -5.656098 -0.000000 0.000000
RightUpLeg -65.781006 -46.478890 -23.191419
RightLeg 5.158320 -0.000000 -0.000000
RightFoot 43.070037 -14.180825 -10.876030
RightToeBase 25.163099 -0.000000 -0.000000
